<svg width="24" height="24" viewBox="0 0 24 24" fill="none" xmlns="http://www.w3.org/2000/svg">
<path d="M7.288 12.713C7.096 12.521 7 12.2833 7 12C7 11.7167 7.096 11.4793 7.288 11.288C7.48 11.0967 7.71733 11.0007 8 11C8.28267 10.9993 8.52033 11.0953 8.713 11.288C8.90567 11.4807 9.00133 11.718 9 12C8.99867 12.282 8.90267 12.5197 8.712 12.713C8.52133 12.9063 8.284 13.002 8 13C7.716 12.998 7.47867 12.902 7.288 12.712M11.288 12.712C11.096 12.5213 11 12.284 11 12C11 11.716 11.096 11.4787 11.288 11.288C11.48 11.0973 11.7173 11.0013 12 11C12.2827 10.9987 12.5203 11.0947 12.713 11.288C12.9057 11.4813 13.0013 11.7187 13 12C12.9987 12.2813 12.9027 12.519 12.712 12.713C12.5213 12.907 12.284 13.0027 12 13C11.716 12.9973 11.4787 12.9013 11.288 12.712ZM15.288 12.712C15.096 12.5213 15 12.284 15 12C15 11.716 15.096 11.4787 15.288 11.288C15.48 11.0973 15.7173 11.0013 16 11C16.2827 10.9987 16.5203 11.0947 16.713 11.288C16.9057 11.4813 17.0013 11.7187 17 12C16.9987 12.2813 16.9027 12.519 16.712 12.713C16.5213 12.907 16.284 13.0027 16 13C15.716 12.9973 15.4787 12.9013 15.288 12.712ZM5 21C4.45 21 3.97933 20.8043 3.588 20.413C3.19667 20.0217 3.00067 19.5507 3 19V6C3 5.45 3.196 4.97933 3.588 4.588C3.98 4.19667 4.45067 4.00067 5 4H6V2H8V4H16V2H18V4H19C19.55 4 20.021 4.196 20.413 4.588C20.805 4.98 21.0007 5.45067 21 6V19C21 19.55 20.8043 20.021 20.413 20.413C20.0217 20.805 19.5507 21.0007 19 21H5ZM5 19H19V9H5V19Z" fill="#2563EB"/>
</svg>
