<svg width="20" height="20" viewBox="0 0 20 20" fill="none" xmlns="http://www.w3.org/2000/svg">
<path d="M10.5942 13.9275C10.7537 13.7675 10.8334 13.5695 10.8334 13.3334V10C10.8334 9.76391 10.7534 9.56613 10.5934 9.40669C10.4334 9.24724 10.2356 9.16724 10.0001 9.16669C9.76453 9.16613 9.56675 9.24613 9.40675 9.40669C9.24675 9.56724 9.16675 9.76502 9.16675 10V13.3334C9.16675 13.5695 9.24675 13.7675 9.40675 13.9275C9.56675 14.0875 9.76453 14.1672 10.0001 14.1667C10.2356 14.1661 10.4337 14.087 10.5942 13.9275ZM10.5942 7.26002C10.7537 7.10058 10.8334 6.9028 10.8334 6.66669C10.8334 6.43058 10.7534 6.2328 10.5934 6.07335C10.4334 5.91391 10.2356 5.83391 10.0001 5.83335C9.76453 5.8328 9.56675 5.9128 9.40675 6.07335C9.24675 6.23391 9.16675 6.43169 9.16675 6.66669C9.16675 6.90169 9.24675 7.09974 9.40675 7.26085C9.56675 7.42197 9.76453 7.50169 10.0001 7.50002C10.2356 7.49835 10.4337 7.41835 10.5942 7.26002ZM10.0001 18.3334C8.8473 18.3334 7.76397 18.1145 6.75008 17.6767C5.73619 17.2389 4.85425 16.6453 4.10425 15.8959C3.35425 15.1464 2.76064 14.2645 2.32342 13.25C1.88619 12.2356 1.6673 11.1522 1.66675 10C1.66619 8.8478 1.88508 7.76447 2.32342 6.75002C2.76175 5.73558 3.35536 4.85363 4.10425 4.10419C4.85314 3.35474 5.73508 2.76113 6.75008 2.32335C7.76508 1.88558 8.84842 1.66669 10.0001 1.66669C11.1517 1.66669 12.2351 1.88558 13.2501 2.32335C14.2651 2.76113 15.147 3.35474 15.8959 4.10419C16.6448 4.85363 17.2387 5.73558 17.6776 6.75002C18.1165 7.76447 18.3351 8.8478 18.3334 10C18.3317 11.1522 18.1129 12.2356 17.6767 13.25C17.2406 14.2645 16.647 15.1464 15.8959 15.8959C15.1448 16.6453 14.2629 17.2392 13.2501 17.6775C12.2373 18.1159 11.154 18.3345 10.0001 18.3334Z" fill="#2563EB"/>
</svg>
