<svg width="20" height="20" viewBox="0 0 20 20" fill="none" xmlns="http://www.w3.org/2000/svg">
<mask id="mask0_216_4322" style="mask-type:alpha" maskUnits="userSpaceOnUse" x="0" y="0" width="20" height="20">
<path d="M20 0H0V20H20V0Z" fill="#222222"/>
</mask>
<g mask="url(#mask0_216_4322)">
<path fill-rule="evenodd" clip-rule="evenodd" d="M3 7.5625C3 7.28636 3.22386 7.0625 3.5 7.0625H16.5C16.7761 7.0625 17 7.28636 17 7.5625V16.5C17 16.7761 16.7761 17 16.5 17H3.5C3.22386 17 3 16.7761 3 16.5V7.5625ZM4 8.0625V16H16V8.0625H4Z" fill="#999999"/>
<path fill-rule="evenodd" clip-rule="evenodd" d="M3 5.125C3 4.84886 3.22386 4.625 3.5 4.625H16.5C16.7761 4.625 17 4.84886 17 5.125V7.5625C17 7.83864 16.7761 8.0625 16.5 8.0625H3.5C3.22386 8.0625 3 7.83864 3 7.5625V5.125ZM4 5.625V7.0625H16V5.625H4Z" fill="#999999"/>
<path fill-rule="evenodd" clip-rule="evenodd" d="M6.75 3C7.02614 3 7.25 3.22386 7.25 3.5V5.125C7.25 5.40114 7.02614 5.625 6.75 5.625C6.47386 5.625 6.25 5.40114 6.25 5.125V3.5C6.25 3.22386 6.47386 3 6.75 3Z" fill="#999999"/>
<path fill-rule="evenodd" clip-rule="evenodd" d="M13.25 3C13.5261 3 13.75 3.22386 13.75 3.5V5.125C13.75 5.40114 13.5261 5.625 13.25 5.625C12.9739 5.625 12.75 5.40114 12.75 5.125V3.5C12.75 3.22386 12.9739 3 13.25 3Z" fill="#999999"/>
</g>
</svg>
